<svg viewBox="0 0 120 80" fill="none" xmlns="http://www.w3.org/2000/svg">
  <rect width="120" height="80" rx="4" fill="white"/>
  <rect x="0.5" y="0.5" width="119" height="79" rx="3.5" stroke="#ddd"/>
  <rect x="40" width="80" height="80" rx="4" fill="#fff" fill-rule="evenodd"/>
  <path d="m120 76v-8.68h-9.65l-4.97-5.49-4.99 5.49h-31.82v-25.61h-10.27l12.74-28.83h12.29l4.39 9.88v-9.88h15.21l2.64 7.44 2.66-7.44h11.79v-8.89c0-2.21-1.79-4-4-4h-112c-2.21 0-4 1.79-4 4v72c0 2.21 1.79 4 4 4h112c2.21 0 4-1.79 4-4zm-8.03-11.88h8.03l-10.62-11.26 10.62-11.13h-7.9l-6.56 7.16-6.49-7.16h-8.03l10.55 11.19-10.55 11.19h7.8l6.59-7.23 6.56 7.23zm1.88-11.25 6.15 6.54v-13.03l-6.15 6.49zm-35.78 6.07v-3.49h12.63v-5.05h-12.63v-3.49h12.95v-5.18h-19.06v22.39h19.06v-5.18h-12.95zm35.88-20.46h6.05v-22.39h-9.4l-5.02 13.94-4.99-13.94h-9.56v22.39h6.04v-15.67l5.76 15.67h5.37l5.76-15.7v15.7zm-29.81 0h6.88l-9.88-22.39h-7.87l-9.88 22.39h6.72l1.85-4.48h10.3l1.89 4.48zm-4-9.5h-6.08l3.04-7.32 3.04 7.32z" fill="#0690FF"/>
</svg>
