<svg viewBox="0 0 120 80" fill="none" xmlns="http://www.w3.org/2000/svg">
  <rect width="120" height="80" rx="4" fill="white"/>
  <rect x="0.5" y="0.5" width="119" height="79" rx="3.5" stroke="#ddd"/>
  <path fill-rule="evenodd" clip-rule="evenodd" d="M86.67 44.94L90.32 35.06L92.38 44.94H86.67ZM100.95 52.84L95.81 27.16H88.74C86.35 27.16 85.77 29.08 85.77 29.08L76.19 52.84H82.89L84.23 49.02H92.39L93.15 52.84H100.95Z" fill="#1434CB"/>
  <path fill-rule="evenodd" clip-rule="evenodd" d="M77.19 33.57L78.1 28.24C78.1 28.24 75.29 27.16 72.36 27.16C69.2 27.16 61.7 28.56 61.7 35.37C61.7 41.78 70.51 41.86 70.51 45.23C70.51 48.59 62.6 47.99 60 45.87L59.05 51.44C59.05 51.44 61.89 52.84 66.24 52.84C70.59 52.84 77.15 50.55 77.15 44.35C77.15 37.9 68.26 37.3 68.26 34.49C68.26 31.69 74.46 32.05 77.19 33.57Z" fill="#1434CB"/>
  <path fill-rule="evenodd" clip-rule="evenodd" d="M54.65 52.84H47.62L52.01 27.16H59.05L54.65 52.84Z" fill="#1434CB"/>
  <path fill-rule="evenodd" clip-rule="evenodd" d="M42.31 27.16L35.92 44.82L35.17 41.02L32.91 29.47C32.91 29.47 32.64 27.16 29.73 27.16H19.17L19.05 27.6C19.05 27.6 22.28 28.27 26.06 30.53L31.88 52.84H38.86L49.52 27.16H42.31Z" fill="#1434CB"/>
</svg>
