<svg xmlns="http://www.w3.org/2000/svg" viewBox="0 0 64 64" role="img" aria-label="Design Factory favicon">
  <defs>
    <linearGradient id="df-cyan" x1="8" y1="8" x2="30" y2="54" gradientUnits="userSpaceOnUse">
      <stop offset="0" stop-color="#2dd4df"/>
      <stop offset="1" stop-color="#2397f3"/>
    </linearGradient>
    <linearGradient id="df-violet" x1="34" y1="10" x2="58" y2="54" gradientUnits="userSpaceOnUse">
      <stop offset="0" stop-color="#6d28d9"/>
      <stop offset="1" stop-color="#5aa2ff"/>
    </linearGradient>
  </defs>
  <rect width="64" height="64" rx="14" fill="#ffffff"/>
  <path d="M11 17.5C11 15 13 13 15.5 13H33v22.5c0 2.1-1.1 4.1-3 5.2L17.4 48c-2.8 1.6-6.4-0.4-6.4-3.7V17.5Z" fill="url(#df-cyan)"/>
  <path d="M31 28.5l8-13h9L39 30l9 15h-9l-8-13.3-8 13.3h-9l9-15-9-14.5h9l8 13Z" fill="#ffffff"/>
  <path d="M53 19.5c0-2.5-2-4.5-4.5-4.5H31v22.5c0 2.1 1.1 4.1 3 5.2L46.6 50c2.8 1.6 6.4-0.4 6.4-3.7V19.5Z" fill="url(#df-violet)"/>
</svg>
